<svg xmlns="http://www.w3.org/2000/svg" width="1440" height="900" xmlns:xlink="http://www.w3.org/1999/xlink" version="1">
  <defs>
    <linearGradient id="a">
      <stop offset="0" stop-color="#3c6eb4"/>
      <stop offset="1" stop-color="#294172"/>
    </linearGradient>
    <radialGradient id="g" cx="721.429" cy="452.857" r="731.5" xlink:href="#a" fx="1105.304" fy="141.053" gradientTransform="matrix(1.23 0 0 .77 -164.95 109.29)" gradientUnits="userSpaceOnUse"/>
    <filter id="u">
      <feGaussianBlur stdDeviation=".385"/>
    </filter>
    <filter id="h">
      <feGaussianBlur stdDeviation=".925"/>
    </filter>
    <radialGradient id="i" cx="81.724" cy="18.494" r="16.066" gradientUnits="userSpaceOnUse" gradientTransform="translate(0 .23)" fy="12.488" fx="89.552" xlink:href="#b"/>
    <radialGradient id="l" cx="122.977" cy="18.331" r="16.066" gradientUnits="userSpaceOnUse" gradientTransform="translate(0 .23)" fy="12.806" fx="131.28" xlink:href="#c"/>
    <radialGradient id="k" cx="164.898" cy="17" r="15.912" gradientUnits="userSpaceOnUse" gradientTransform="translate(0 .23)" fy="11.475" fx="173.438" xlink:href="#d"/>
    <radialGradient id="j" cx="199.983" cy="15.526" r="15.912" gradientUnits="userSpaceOnUse" gradientTransform="matrix(1.15 0 0 .94 -29.35 1.2)" fy="8.8" fx="207.574" xlink:href="#e"/>
    <filter id="n">
      <feGaussianBlur stdDeviation=".45"/>
    </filter>
    <filter id="t">
      <feGaussianBlur stdDeviation=".45"/>
    </filter>
    <filter id="r">
      <feGaussianBlur stdDeviation=".45"/>
    </filter>
    <filter id="p">
      <feGaussianBlur stdDeviation=".45"/>
    </filter>
    <linearGradient id="s" x1="27.678" x2="59.811" y1="138.84" y2="138.84" gradientTransform="matrix(.97 0 0 .97 80.59 -116.19)" gradientUnits="userSpaceOnUse" xlink:href="#f"/>
    <linearGradient id="q" x1="67.855" x2="99.68" y1="138.951" y2="138.951" gradientTransform="matrix(.97 0 0 .97 81.83 -116.2)" gradientUnits="userSpaceOnUse" xlink:href="#f"/>
    <linearGradient id="o" x1="107.676" x2="139.5" y1="138.721" y2="138.721" gradientTransform="matrix(.97 0 0 .97 83.04 -116.23)" gradientUnits="userSpaceOnUse" xlink:href="#f"/>
    <linearGradient id="m" x1="-13.574" x2="18.558" y1="139.003" y2="139.003" gradientTransform="matrix(.97 0 0 .97 79.31 -116.21)" gradientUnits="userSpaceOnUse" xlink:href="#f"/>
    <linearGradient id="f">
      <stop offset="0" stop-color="#fff"/>
      <stop offset="1"/>
    </linearGradient>
    <linearGradient id="e">
      <stop offset="0" stop-color="#bcef99"/>
      <stop offset=".5" stop-color="#7de03a"/>
      <stop offset="1" stop-color="#4d9b18"/>
    </linearGradient>
    <linearGradient id="d">
      <stop offset="0" stop-color="#ebd24c"/>
      <stop offset=".5" stop-color="#df8d1a"/>
      <stop offset="1" stop-color="#aa5f13"/>
    </linearGradient>
    <linearGradient id="c">
      <stop offset="0" stop-color="#e392b5"/>
      <stop offset=".5" stop-color="#ff1278"/>
      <stop offset="1" stop-color="#aa0049"/>
    </linearGradient>
    <linearGradient id="b">
      <stop offset="0" stop-color="#a0b9e2"/>
      <stop offset=".5" stop-color="#3969b8"/>
      <stop offset="1" stop-color="#27487f"/>
    </linearGradient>
  </defs>
  <rect width="1460" height="917.143" x="-8.571" y="-5.714" fill="url(#g)" stroke="#000" stroke-width="3" rx="0" stroke-linecap="round" stroke-linejoin="round" overflow="visible"/>
  <rect width="48.322" height="48.322" x="1107.189" y="682.13" fill="#294172" ry="14.425" overflow="visible"/>
  <rect width="48.322" height="48.322" x="1107.189" y="737.208" fill="#294172" ry="14.425" overflow="visible"/>
  <rect width="48.322" height="48.322" x="1053.13" y="682.13" fill="#294172" ry="14.425" overflow="visible"/>
  <rect width="48.322" height="48.322" x="1053.13" y="737.208" fill="#294172" ry="14.425" overflow="visible"/>
  <rect width="48.322" height="48.322" x="998.052" y="682.13" fill="#294172" ry="14.425" overflow="visible"/>
  <rect width="48.322" height="48.322" x="998.052" y="737.208" fill="#294172" ry="14.425" overflow="visible"/>
  <path fill="#294172" d="M991.486 706.45c0-13.052-10.582-23.634-23.636-23.634-13.047 0-23.625 10.573-23.635 23.62v-.002 18.29c.008 2.963 2.41 5.36 5.374 5.36h18.26c13.05-.004 23.62-10.583 23.62-23.633z"/>
  <rect width="48.322" height="48.322" x="943.993" y="737.208" fill="#294172" ry="14.425" overflow="visible"/>
  <rect width="48.322" height="48.322" x="1107.189" y="790.247" fill="#294172" ry="14.425" overflow="visible"/>
  <rect width="48.322" height="48.322" x="1107.189" y="845.325" fill="#294172" ry="14.425" overflow="visible"/>
  <path fill="#3c6eb4" d="M1100.39 813.915c0-13.054-10.58-23.636-23.634-23.636-13.048 0-23.626 10.57-23.635 23.61v18.29c.01 2.96 2.41 5.36 5.38 5.36h18.27c13.05-.01 23.63-10.59 23.63-23.64z" opacity=".358"/>
  <rect width="48.322" height="48.322" x="1053.13" y="845.325" fill="#294172" ry="14.425" overflow="visible"/>
  <rect width="48.322" height="48.322" x="998.052" y="790.247" fill="#294172" ry="14.425" overflow="visible"/>
  <rect width="48.322" height="48.322" x="998.052" y="845.325" fill="#294172" ry="14.425" overflow="visible"/>
  <rect width="48.322" height="48.322" x="943.993" y="790.247" fill="#294172" ry="14.425" overflow="visible"/>
  <rect width="48.322" height="48.322" x="943.993" y="845.325" fill="#294172" ry="14.425" overflow="visible"/>
  <rect width="48.322" height="48.322" x="1107.189" y="464.876" fill="#294172" ry="14.425" overflow="visible"/>
  <path fill="#294172" d="M1155.926 544.175c0-13.054-10.582-23.636-23.636-23.636-13.047 0-23.625 10.57-23.634 23.61v18.29c.007 2.96 2.41 5.36 5.373 5.36h18.26c13.05-.01 23.62-10.59 23.62-23.64z"/>
  <rect width="48.322" height="48.322" x="1053.13" y="464.876" fill="#294172" ry="14.425" overflow="visible"/>
  <rect width="48.322" height="48.322" x="1053.13" y="519.954" fill="#3c6eb4" ry="14.425" opacity=".325" overflow="visible"/>
  <rect width="48.322" height="48.322" x="998.052" y="464.876" fill="#294172" ry="14.425" overflow="visible"/>
  <rect width="48.322" height="48.322" x="998.052" y="519.954" fill="#294172" ry="14.425" overflow="visible"/>
  <rect width="48.322" height="48.322" x="943.993" y="464.876" fill="#294172" ry="14.425" overflow="visible"/>
  <rect width="48.322" height="48.322" x="943.993" y="519.954" fill="#294172" ry="14.425" overflow="visible"/>
  <rect width="48.322" height="48.322" x="1107.189" y="572.993" fill="#294172" ry="14.425" overflow="visible"/>
  <rect width="48.322" height="48.322" x="1107.189" y="628.071" fill="#294172" ry="14.425" overflow="visible"/>
  <rect width="48.322" height="48.322" x="1053.13" y="572.993" fill="#294172" ry="14.425" overflow="visible"/>
  <rect width="48.322" height="48.322" x="1053.13" y="628.071" fill="#294172" ry="14.425" overflow="visible"/>
  <rect width="48.322" height="48.322" x="998.052" y="572.993" fill="#294172" ry="14.425" overflow="visible"/>
  <rect width="48.322" height="48.322" x="998.052" y="628.071" fill="#294172" ry="14.425" overflow="visible"/>
  <rect width="48.322" height="48.322" x="943.993" y="572.993" fill="#294172" ry="14.425" overflow="visible"/>
  <rect width="48.322" height="48.322" x="943.993" y="628.071" fill="#294172" ry="14.425" overflow="visible"/>
  <rect width="48.322" height="48.322" x="886.875" y="682.13" fill="#294172" ry="14.425" overflow="visible"/>
  <rect width="48.322" height="48.322" x="886.875" y="737.208" fill="#294172" ry="14.425" overflow="visible"/>
  <rect width="48.322" height="48.322" x="832.816" y="682.13" fill="#294172" ry="14.425" overflow="visible"/>
  <rect width="48.322" height="48.322" x="832.816" y="737.208" fill="#294172" ry="14.425" overflow="visible"/>
  <rect width="48.322" height="48.322" x="777.738" y="682.13" fill="#294172" ry="14.425" overflow="visible"/>
  <path fill="#3c6eb4" d="M825.603 761.986c0-13.054-10.582-23.636-23.635-23.636-13.048 0-23.626 10.574-23.635 23.62v18.29c.007 2.962 2.41 5.36 5.373 5.36h18.272c13.05-.006 23.626-10.584 23.626-23.634z" opacity=".358"/>
  <rect width="48.322" height="48.322" x="723.679" y="682.13" fill="#294172" ry="14.425" overflow="visible"/>
  <rect width="48.322" height="48.322" x="723.679" y="737.208" fill="#294172" ry="14.425" overflow="visible"/>
  <rect width="48.322" height="48.322" x="886.875" y="790.247" fill="#3c6eb4" ry="14.425" opacity=".325" overflow="visible"/>
  <rect width="48.322" height="48.322" x="886.875" y="845.325" fill="#294172" ry="14.425" overflow="visible"/>
  <rect width="48.322" height="48.322" x="832.816" y="790.247" fill="#294172" ry="14.425" overflow="visible"/>
  <rect width="48.322" height="48.322" x="832.816" y="845.325" fill="#294172" ry="14.425" overflow="visible"/>
  <rect width="48.322" height="48.322" x="777.738" y="790.247" fill="#294172" ry="14.425" overflow="visible"/>
  <rect width="48.322" height="48.322" x="777.738" y="845.325" fill="#294172" ry="14.425" overflow="visible"/>
  <rect width="48.322" height="48.322" x="723.679" y="790.247" fill="#294172" ry="14.425" overflow="visible"/>
  <rect width="48.322" height="48.322" x="723.679" y="845.325" fill="#3c6eb4" ry="14.425" opacity=".191" overflow="visible"/>
  <rect width="48.322" height="48.322" x="886.875" y="464.876" fill="#3c6eb4" ry="14.425" opacity=".358" overflow="visible"/>
  <path fill="#294172" d="M935.23 544.175c0-13.054-10.582-23.636-23.636-23.636-13.047 0-23.625 10.57-23.634 23.61v18.29c.007 2.96 2.41 5.36 5.373 5.36h18.27c13.05-.01 23.627-10.59 23.627-23.64z"/>
  <rect width="48.322" height="48.322" x="832.816" y="464.876" fill="#294172" ry="14.425" overflow="visible"/>
  <rect width="48.322" height="48.322" x="832.816" y="519.954" fill="#294172" ry="14.425" overflow="visible"/>
  <rect width="48.322" height="48.322" x="777.738" y="464.876" fill="#294172" ry="14.425" overflow="visible"/>
  <rect width="48.322" height="48.322" x="777.738" y="519.954" fill="#294172" ry="14.425" overflow="visible"/>
  <rect width="48.322" height="48.322" x="723.679" y="464.876" fill="#294172" ry="14.425" overflow="visible"/>
  <rect width="48.322" height="48.322" x="723.679" y="519.954" fill="#3c6eb4" ry="14.425" opacity=".191" overflow="visible"/>
  <rect width="48.322" height="48.322" x="886.875" y="572.993" fill="#294172" ry="14.425" overflow="visible"/>
  <rect width="48.322" height="48.322" x="886.875" y="628.071" fill="#3c6eb4" ry="14.425" opacity=".358" overflow="visible"/>
  <rect width="48.322" height="48.322" x="832.816" y="572.993" fill="#294172" ry="14.425" overflow="visible"/>
  <rect width="48.322" height="48.322" x="832.816" y="628.071" fill="#294172" ry="14.425" overflow="visible"/>
  <rect width="48.322" height="48.322" x="777.738" y="572.993" fill="#294172" ry="14.425" overflow="visible"/>
  <rect width="48.322" height="48.322" x="777.738" y="628.071" fill="#294172" ry="14.425" overflow="visible"/>
  <rect width="48.322" height="48.322" x="723.679" y="572.993" fill="#294172" ry="14.425" overflow="visible"/>
  <path fill="#294172" d="M771.51 653.08c0-13.053-10.58-23.635-23.635-23.635-13.047 0-23.625 10.573-23.634 23.62v-.002 18.29c.01 2.963 2.41 5.36 5.38 5.36h18.27c13.05-.004 23.63-10.583 23.63-23.632z"/>
  <rect width="48.322" height="48.322" x="1269.364" y="682.13" fill="#294172" ry="14.425" overflow="visible"/>
  <rect width="48.322" height="48.322" x="1269.364" y="737.208" fill="#294172" ry="14.425" overflow="visible"/>
  <rect width="48.322" height="48.322" x="1215.305" y="682.13" fill="#3c6eb4" ry="14.425" opacity=".358" overflow="visible"/>
  <path fill="#294172" d="M1263.39 761.265c0-13.054-10.583-23.636-23.637-23.636-13.047 0-23.625 10.57-23.634 23.61h-.01v18.29c.01 2.96 2.41 5.36 5.37 5.36h18.27c13.05-.01 23.62-10.59 23.62-23.64z"/>
  <rect width="48.322" height="48.322" x="1160.227" y="682.13" fill="#294172" ry="14.425" overflow="visible"/>
  <rect width="48.322" height="48.322" x="1160.227" y="737.208" fill="#294172" ry="14.425" overflow="visible"/>
  <rect width="48.322" height="48.322" x="1269.364" y="790.247" fill="#294172" ry="14.425" overflow="visible"/>
  <rect width="48.322" height="48.322" x="1269.364" y="845.325" fill="#294172" ry="14.425" overflow="visible"/>
  <rect width="48.322" height="48.322" x="1215.305" y="790.247" fill="#3c6eb4" ry="14.425" opacity=".358" overflow="visible"/>
  <rect width="48.322" height="48.322" x="1215.305" y="845.325" fill="#294172" ry="14.425" overflow="visible"/>
  <rect width="48.322" height="48.322" x="1160.227" y="790.247" fill="#294172" ry="14.425" overflow="visible"/>
  <rect width="48.322" height="48.322" x="1160.227" y="845.325" fill="#294172" ry="14.425" overflow="visible"/>
  <rect width="48.322" height="48.322" x="1269.364" y="464.876" fill="#294172" ry="14.425" overflow="visible"/>
  <path fill="#294172" d="M1317.044 543.843c0-13.053-10.582-23.636-23.635-23.636-13.05 0-23.63 10.574-23.64 23.62v18.29c0 2.962 2.41 5.36 5.37 5.36h18.27c13.05-.005 23.62-10.584 23.62-23.634z"/>
  <rect width="48.322" height="48.322" x="1215.305" y="464.876" fill="#294172" ry="14.425" overflow="visible"/>
  <rect width="48.322" height="48.322" x="1215.305" y="519.954" fill="#294172" ry="14.425" overflow="visible"/>
  <rect width="48.322" height="48.322" x="1160.227" y="464.876" fill="#294172" ry="14.425" overflow="visible"/>
  <rect width="48.322" height="48.322" x="1160.227" y="519.954" fill="#3c6eb4" ry="14.425" opacity=".358" overflow="visible"/>
  <rect width="48.322" height="48.322" x="1269.364" y="572.993" fill="#3c6eb4" ry="14.425" opacity=".325" overflow="visible"/>
  <path fill="#294172" d="M1317.48 653.08c0-13.053-10.58-23.635-23.635-23.635-13.047 0-23.625 10.573-23.634 23.62v-.002 18.29c.01 2.963 2.41 5.36 5.38 5.36h18.27c13.05-.004 23.63-10.583 23.63-23.632z"/>
  <rect width="48.322" height="48.322" x="1215.305" y="572.993" fill="#294172" ry="14.425" overflow="visible"/>
  <rect width="48.322" height="48.322" x="1215.305" y="628.071" fill="#294172" ry="14.425" overflow="visible"/>
  <rect width="48.322" height="48.322" x="1160.227" y="572.993" fill="#294172" ry="14.425" overflow="visible"/>
  <rect width="48.322" height="48.322" x="1160.227" y="628.071" fill="#294172" ry="14.425" overflow="visible"/>
  <rect width="48.322" height="48.322" x="1376.461" y="682.13" fill="#294172" ry="14.425" overflow="visible"/>
  <rect width="48.322" height="48.322" x="1376.461" y="737.208" fill="#3c6eb4" ry="14.425" opacity=".191" overflow="visible"/>
  <rect width="48.322" height="48.322" x="1321.383" y="682.13" fill="#294172" ry="14.425" overflow="visible"/>
  <rect width="48.322" height="48.322" x="1321.383" y="737.208" fill="#294172" ry="14.425" overflow="visible"/>
  <rect width="48.322" height="48.322" x="1376.461" y="790.247" fill="#294172" ry="14.425" overflow="visible"/>
  <rect width="48.322" height="48.322" x="1376.461" y="845.325" fill="#3c6eb4" ry="14.425" opacity=".089" overflow="visible"/>
  <rect width="48.322" height="48.322" x="1321.383" y="790.247" fill="#294172" ry="14.425" overflow="visible"/>
  <rect width="48.322" height="48.322" x="1321.383" y="845.325" fill="#294172" ry="14.425" overflow="visible"/>
  <rect width="48.322" height="48.322" x="1376.461" y="464.876" fill="#294172" ry="14.425" overflow="visible"/>
  <rect width="48.322" height="48.322" x="1376.461" y="519.954" fill="#294172" ry="14.425" overflow="visible"/>
  <rect width="48.322" height="48.322" x="1321.383" y="464.876" fill="#3c6eb4" ry="14.425" opacity=".191" overflow="visible"/>
  <rect width="48.322" height="48.322" x="1321.383" y="519.954" fill="#294172" ry="14.425" overflow="visible"/>
  <rect width="48.322" height="48.322" x="1376.461" y="572.993" fill="#294172" ry="14.425" overflow="visible"/>
  <rect width="48.322" height="48.322" x="1376.461" y="628.071" fill="#294172" ry="14.425" overflow="visible"/>
  <rect width="48.322" height="48.322" x="1321.383" y="572.993" fill="#294172" ry="14.425" overflow="visible"/>
  <rect width="48.322" height="48.322" x="1321.383" y="628.071" fill="#294172" ry="14.425" overflow="visible"/>
  <text x="1315.146" y="894.997" fill="#fff" style="text-align:start;line-height:125%;-inkscape-font-specification:MgOpen Modata" font-size="12" font-family="MgOpen Modata" opacity=".5">
    <tspan x="1315.146" y="894.997">tatica@fedoraproject.org</tspan>
  </text>
  <rect width="48.322" height="48.322" x="398.395" y="682.13" fill="#294172" ry="14.425" overflow="visible"/>
  <rect width="48.322" height="48.322" x="398.395" y="737.208" fill="#294172" ry="14.425" overflow="visible"/>
  <rect width="48.322" height="48.322" x="344.337" y="682.13" fill="#294172" ry="14.425" overflow="visible"/>
  <rect width="48.322" height="48.322" x="344.337" y="737.208" fill="#294172" ry="14.425" overflow="visible"/>
  <rect width="48.322" height="48.322" x="289.258" y="682.13" fill="#294172" ry="14.425" overflow="visible"/>
  <rect width="48.322" height="48.322" x="289.258" y="737.208" fill="#294172" ry="14.425" overflow="visible"/>
  <path fill="#294172" d="M282.692 706.45c0-13.052-10.582-23.634-23.636-23.634-13.047 0-23.625 10.573-23.634 23.62v-.002 18.29c.007 2.963 2.41 5.36 5.373 5.36h18.27c13.05-.004 23.627-10.583 23.627-23.633z"/>
  <rect width="48.322" height="48.322" x="235.2" y="737.208" fill="#294172" ry="14.425" overflow="visible"/>
  <rect width="48.322" height="48.322" x="398.395" y="790.247" fill="#294172" ry="14.425" overflow="visible"/>
  <rect width="48.322" height="48.322" x="398.395" y="845.325" fill="#294172" ry="14.425" overflow="visible"/>
  <path fill="#3c6eb4" d="M391.598 813.915c0-13.054-10.582-23.636-23.636-23.636-13.047 0-23.625 10.57-23.635 23.61v18.29c.007 2.96 2.41 5.36 5.374 5.36h18.28c13.05-.01 23.63-10.59 23.63-23.64z" opacity=".358"/>
  <rect width="48.322" height="48.322" x="344.337" y="845.325" fill="#294172" ry="14.425" overflow="visible"/>
  <rect width="48.322" height="48.322" x="289.258" y="790.247" fill="#294172" ry="14.425" overflow="visible"/>
  <rect width="48.322" height="48.322" x="289.258" y="845.325" fill="#294172" ry="14.425" overflow="visible"/>
  <rect width="48.322" height="48.322" x="235.2" y="790.247" fill="#294172" ry="14.425" overflow="visible"/>
  <rect width="48.322" height="48.322" x="235.2" y="845.325" fill="#294172" ry="14.425" overflow="visible"/>
  <rect width="48.322" height="48.322" x="398.395" y="464.876" fill="#294172" ry="14.425" overflow="visible"/>
  <path fill="#294172" d="M447.132 544.175c0-13.054-10.582-23.636-23.635-23.636-13.048 0-23.626 10.57-23.635 23.61v18.29c.007 2.96 2.41 5.36 5.373 5.36h18.272c13.05-.01 23.626-10.59 23.626-23.64z"/>
  <rect width="48.322" height="48.322" x="344.337" y="464.876" fill="#294172" ry="14.425" overflow="visible"/>
  <rect width="48.322" height="48.322" x="344.337" y="519.954" fill="#3c6eb4" ry="14.425" opacity=".325" overflow="visible"/>
  <rect width="48.322" height="48.322" x="289.258" y="464.876" fill="#294172" ry="14.425" overflow="visible"/>
  <rect width="48.322" height="48.322" x="289.258" y="519.954" fill="#294172" ry="14.425" overflow="visible"/>
  <rect width="48.322" height="48.322" x="235.2" y="464.876" fill="#294172" ry="14.425" overflow="visible"/>
  <rect width="48.322" height="48.322" x="235.2" y="519.954" fill="#294172" ry="14.425" overflow="visible"/>
  <rect width="48.322" height="48.322" x="398.395" y="572.993" fill="#294172" ry="14.425" overflow="visible"/>
  <rect width="48.322" height="48.322" x="398.395" y="628.071" fill="#294172" ry="14.425" overflow="visible"/>
  <rect width="48.322" height="48.322" x="344.337" y="572.993" fill="#294172" ry="14.425" overflow="visible"/>
  <rect width="48.322" height="48.322" x="344.337" y="628.071" fill="#294172" ry="14.425" overflow="visible"/>
  <rect width="48.322" height="48.322" x="289.258" y="572.993" fill="#294172" ry="14.425" overflow="visible"/>
  <rect width="48.322" height="48.322" x="289.258" y="628.071" fill="#294172" ry="14.425" overflow="visible"/>
  <rect width="48.322" height="48.322" x="235.2" y="572.993" fill="#294172" ry="14.425" overflow="visible"/>
  <rect width="48.322" height="48.322" x="235.2" y="628.071" fill="#294172" ry="14.425" overflow="visible"/>
  <rect width="48.322" height="48.322" x="178.081" y="682.13" fill="#294172" ry="14.425" overflow="visible"/>
  <rect width="48.322" height="48.322" x="178.081" y="737.208" fill="#294172" ry="14.425" overflow="visible"/>
  <rect width="48.322" height="48.322" x="124.023" y="682.13" fill="#294172" ry="14.425" overflow="visible"/>
  <rect width="48.322" height="48.322" x="124.023" y="737.208" fill="#294172" ry="14.425" overflow="visible"/>
  <rect width="48.322" height="48.322" x="68.944" y="682.13" fill="#294172" ry="14.425" overflow="visible"/>
  <path fill="#3c6eb4" d="M116.81 761.986c0-13.054-10.582-23.636-23.636-23.636-13.048 0-23.625 10.574-23.635 23.62h-.01v18.29c.01 2.962 2.41 5.36 5.37 5.36h18.27c13.05-.006 23.62-10.584 23.62-23.634z" opacity=".358"/>
  <rect width="48.322" height="48.322" x="14.886" y="682.13" fill="#294172" ry="14.425" overflow="visible"/>
  <rect width="48.322" height="48.322" x="14.886" y="737.208" fill="#294172" ry="14.425" overflow="visible"/>
  <rect width="48.322" height="48.322" x="178.081" y="790.247" fill="#3c6eb4" ry="14.425" opacity=".325" overflow="visible"/>
  <rect width="48.322" height="48.322" x="178.081" y="845.325" fill="#294172" ry="14.425" overflow="visible"/>
  <rect width="48.322" height="48.322" x="124.023" y="790.247" fill="#294172" ry="14.425" overflow="visible"/>
  <rect width="48.322" height="48.322" x="124.023" y="845.325" fill="#294172" ry="14.425" overflow="visible"/>
  <rect width="48.322" height="48.322" x="68.944" y="790.247" fill="#294172" ry="14.425" overflow="visible"/>
  <rect width="48.322" height="48.322" x="68.944" y="845.325" fill="#294172" ry="14.425" overflow="visible"/>
  <rect width="48.322" height="48.322" x="14.886" y="790.247" fill="#294172" ry="14.425" overflow="visible"/>
  <rect width="48.322" height="48.322" x="14.886" y="845.325" fill="#3c6eb4" ry="14.425" opacity=".191" overflow="visible"/>
  <rect width="48.322" height="48.322" x="178.081" y="464.876" fill="#3c6eb4" ry="14.425" opacity=".358" overflow="visible"/>
  <path fill="#294172" d="M226.436 544.175c0-13.054-10.582-23.636-23.635-23.636-13.04 0-23.62 10.57-23.63 23.61v18.29c.01 2.96 2.41 5.36 5.38 5.36h18.27c13.05-.01 23.63-10.59 23.63-23.64z"/>
  <rect width="48.322" height="48.322" x="124.023" y="464.876" fill="#294172" ry="14.425" overflow="visible"/>
  <rect width="48.322" height="48.322" x="124.023" y="519.954" fill="#294172" ry="14.425" overflow="visible"/>
  <rect width="48.322" height="48.322" x="68.944" y="464.876" fill="#294172" ry="14.425" overflow="visible"/>
  <rect width="48.322" height="48.322" x="68.944" y="519.954" fill="#294172" ry="14.425" overflow="visible"/>
  <rect width="48.322" height="48.322" x="14.886" y="464.876" fill="#294172" ry="14.425" overflow="visible"/>
  <rect width="48.322" height="48.322" x="14.886" y="519.954" fill="#3c6eb4" ry="14.425" opacity=".191" overflow="visible"/>
  <rect width="48.322" height="48.322" x="178.081" y="572.993" fill="#294172" ry="14.425" overflow="visible"/>
  <rect width="48.322" height="48.322" x="178.081" y="628.071" fill="#3c6eb4" ry="14.425" opacity=".358" overflow="visible"/>
  <rect width="48.322" height="48.322" x="124.023" y="572.993" fill="#294172" ry="14.425" overflow="visible"/>
  <rect width="48.322" height="48.322" x="124.023" y="628.071" fill="#294172" ry="14.425" overflow="visible"/>
  <rect width="48.322" height="48.322" x="68.944" y="572.993" fill="#294172" ry="14.425" overflow="visible"/>
  <rect width="48.322" height="48.322" x="68.944" y="628.071" fill="#294172" ry="14.425" overflow="visible"/>
  <rect width="48.322" height="48.322" x="14.886" y="572.993" fill="#294172" ry="14.425" overflow="visible"/>
  <path fill="#294172" d="M62.717 653.08c0-13.053-10.582-23.635-23.635-23.635-13.048 0-23.625 10.573-23.635 23.62v-.002 18.29c.007 2.963 2.41 5.36 5.373 5.36h18.27c13.05-.004 23.627-10.583 23.627-23.632z"/>
  <rect width="48.322" height="48.322" x="560.57" y="682.13" fill="#294172" ry="14.425" overflow="visible"/>
  <rect width="48.322" height="48.322" x="560.57" y="737.208" fill="#294172" ry="14.425" overflow="visible"/>
  <rect width="48.322" height="48.322" x="506.512" y="682.13" fill="#3c6eb4" ry="14.425" opacity=".358" overflow="visible"/>
  <path fill="#294172" d="M554.595 761.265c0-13.054-10.582-23.636-23.635-23.636-13.048 0-23.626 10.57-23.635 23.61v18.29c.007 2.96 2.41 5.36 5.373 5.36h18.27c13.05-.01 23.626-10.59 23.626-23.64z"/>
  <rect width="48.322" height="48.322" x="451.434" y="682.13" fill="#294172" ry="14.425" overflow="visible"/>
  <rect width="48.322" height="48.322" x="451.434" y="737.208" fill="#294172" ry="14.425" overflow="visible"/>
  <rect width="48.322" height="48.322" x="560.57" y="790.247" fill="#294172" ry="14.425" overflow="visible"/>
  <rect width="48.322" height="48.322" x="560.57" y="845.325" fill="#294172" ry="14.425" overflow="visible"/>
  <rect width="48.322" height="48.322" x="506.512" y="790.247" fill="#3c6eb4" ry="14.425" opacity=".358" overflow="visible"/>
  <rect width="48.322" height="48.322" x="506.512" y="845.325" fill="#294172" ry="14.425" overflow="visible"/>
  <rect width="48.322" height="48.322" x="451.434" y="790.247" fill="#294172" ry="14.425" overflow="visible"/>
  <rect width="48.322" height="48.322" x="451.434" y="845.325" fill="#294172" ry="14.425" overflow="visible"/>
  <rect width="48.322" height="48.322" x="560.57" y="464.876" fill="#294172" ry="14.425" overflow="visible"/>
  <path fill="#294172" d="M608.25 543.843c0-13.053-10.58-23.636-23.635-23.636-13.047 0-23.625 10.574-23.634 23.62v18.29c.01 2.962 2.41 5.36 5.38 5.36h18.27c13.05-.005 23.63-10.584 23.63-23.634z"/>
  <rect width="48.322" height="48.322" x="506.512" y="464.876" fill="#294172" ry="14.425" overflow="visible"/>
  <rect width="48.322" height="48.322" x="506.512" y="519.954" fill="#294172" ry="14.425" overflow="visible"/>
  <rect width="48.322" height="48.322" x="451.434" y="464.876" fill="#294172" ry="14.425" overflow="visible"/>
  <rect width="48.322" height="48.322" x="451.434" y="519.954" fill="#3c6eb4" ry="14.425" opacity=".358" overflow="visible"/>
  <rect width="48.322" height="48.322" x="560.57" y="572.993" fill="#3c6eb4" ry="14.425" opacity=".325" overflow="visible"/>
  <path fill="#294172" d="M608.687 653.08c0-13.053-10.582-23.635-23.635-23.635-13.048 0-23.625 10.573-23.635 23.62v-.002 18.29c.007 2.963 2.41 5.36 5.373 5.36h18.27c13.05-.004 23.628-10.583 23.628-23.632z"/>
  <rect width="48.322" height="48.322" x="506.512" y="572.993" fill="#294172" ry="14.425" overflow="visible"/>
  <rect width="48.322" height="48.322" x="506.512" y="628.071" fill="#294172" ry="14.425" overflow="visible"/>
  <rect width="48.322" height="48.322" x="451.434" y="572.993" fill="#294172" ry="14.425" overflow="visible"/>
  <rect width="48.322" height="48.322" x="451.434" y="628.071" fill="#294172" ry="14.425" overflow="visible"/>
  <rect width="48.322" height="48.322" x="667.667" y="682.13" fill="#294172" ry="14.425" overflow="visible"/>
  <rect width="48.322" height="48.322" x="667.667" y="737.208" fill="#3c6eb4" ry="14.425" opacity=".191" overflow="visible"/>
  <rect width="48.322" height="48.322" x="612.589" y="682.13" fill="#294172" ry="14.425" overflow="visible"/>
  <rect width="48.322" height="48.322" x="612.589" y="737.208" fill="#294172" ry="14.425" overflow="visible"/>
  <rect width="48.322" height="48.322" x="667.667" y="790.247" fill="#294172" ry="14.425" overflow="visible"/>
  <rect width="48.322" height="48.322" x="667.667" y="845.325" fill="#3c6eb4" ry="14.425" opacity=".089" overflow="visible"/>
  <rect width="48.322" height="48.322" x="612.589" y="790.247" fill="#294172" ry="14.425" overflow="visible"/>
  <rect width="48.322" height="48.322" x="612.589" y="845.325" fill="#294172" ry="14.425" overflow="visible"/>
  <rect width="48.322" height="48.322" x="667.667" y="464.876" fill="#294172" ry="14.425" overflow="visible"/>
  <rect width="48.322" height="48.322" x="667.667" y="519.954" fill="#294172" ry="14.425" overflow="visible"/>
  <rect width="48.322" height="48.322" x="612.589" y="464.876" fill="#3c6eb4" ry="14.425" opacity=".191" overflow="visible"/>
  <rect width="48.322" height="48.322" x="612.589" y="519.954" fill="#294172" ry="14.425" overflow="visible"/>
  <rect width="48.322" height="48.322" x="667.667" y="572.993" fill="#294172" ry="14.425" overflow="visible"/>
  <rect width="48.322" height="48.322" x="667.667" y="628.071" fill="#294172" ry="14.425" overflow="visible"/>
  <rect width="48.322" height="48.322" x="612.589" y="572.993" fill="#294172" ry="14.425" overflow="visible"/>
  <rect width="48.322" height="48.322" x="612.589" y="628.071" fill="#294172" ry="14.425" overflow="visible"/>
  <rect width="48.322" height="48.322" x="1107.189" y="248.13" fill="#294172" ry="14.425" overflow="visible"/>
  <rect width="48.322" height="48.322" x="1107.189" y="303.208" fill="#294172" ry="14.425" overflow="visible"/>
  <rect width="48.322" height="48.322" x="1053.13" y="248.13" fill="#294172" ry="14.425" overflow="visible"/>
  <rect width="48.322" height="48.322" x="1053.13" y="303.208" fill="#294172" ry="14.425" overflow="visible"/>
  <rect width="48.322" height="48.322" x="998.052" y="248.13" fill="#294172" ry="14.425" overflow="visible"/>
  <rect width="48.322" height="48.322" x="998.052" y="303.208" fill="#294172" ry="14.425" overflow="visible"/>
  <path fill="#294172" d="M991.486 272.45c0-13.052-10.582-23.634-23.636-23.634-13.047 0-23.625 10.573-23.635 23.62v-.002 18.29c.008 2.963 2.41 5.36 5.374 5.36h18.26c13.05-.004 23.62-10.583 23.62-23.633z"/>
  <rect width="48.322" height="48.322" x="943.993" y="303.208" fill="#294172" ry="14.425" overflow="visible"/>
  <rect width="48.322" height="48.322" x="1107.189" y="356.247" fill="#294172" ry="14.425" overflow="visible"/>
  <rect width="48.322" height="48.322" x="1107.189" y="411.325" fill="#294172" ry="14.425" overflow="visible"/>
  <path fill="#3c6eb4" d="M1100.39 379.915c0-13.054-10.58-23.636-23.634-23.636-13.048 0-23.626 10.57-23.635 23.61v18.29c.01 2.96 2.41 5.36 5.38 5.36h18.27c13.05-.01 23.63-10.59 23.63-23.64z" opacity=".358"/>
  <rect width="48.322" height="48.322" x="1053.13" y="411.325" fill="#294172" ry="14.425" overflow="visible"/>
  <rect width="48.322" height="48.322" x="998.052" y="356.247" fill="#294172" ry="14.425" overflow="visible"/>
  <rect width="48.322" height="48.322" x="998.052" y="411.325" fill="#294172" ry="14.425" overflow="visible"/>
  <rect width="48.322" height="48.322" x="943.993" y="356.247" fill="#294172" ry="14.425" overflow="visible"/>
  <rect width="48.322" height="48.322" x="943.993" y="411.325" fill="#294172" ry="14.425" overflow="visible"/>
  <rect width="48.322" height="48.322" x="1107.189" y="30.876" fill="#294172" ry="14.425" overflow="visible"/>
  <path fill="#294172" d="M1155.926 110.175c0-13.054-10.582-23.636-23.636-23.636-13.047 0-23.625 10.57-23.634 23.61v18.29c.007 2.96 2.41 5.36 5.373 5.36h18.26c13.05-.01 23.62-10.59 23.62-23.64z"/>
  <rect width="48.322" height="48.322" x="1053.13" y="30.876" fill="#294172" ry="14.425" overflow="visible"/>
  <rect width="48.322" height="48.322" x="1053.13" y="85.954" fill="#3c6eb4" ry="14.425" opacity=".325" overflow="visible"/>
  <rect width="48.322" height="48.322" x="998.052" y="30.876" fill="#294172" ry="14.425" overflow="visible"/>
  <rect width="48.322" height="48.322" x="998.052" y="85.954" fill="#294172" ry="14.425" overflow="visible"/>
  <rect width="48.322" height="48.322" x="943.993" y="30.876" fill="#294172" ry="14.425" overflow="visible"/>
  <rect width="48.322" height="48.322" x="943.993" y="85.954" fill="#294172" ry="14.425" overflow="visible"/>
  <rect width="48.322" height="48.322" x="1107.189" y="138.993" fill="#294172" ry="14.425" overflow="visible"/>
  <rect width="48.322" height="48.322" x="1107.189" y="194.071" fill="#294172" ry="14.425" overflow="visible"/>
  <rect width="48.322" height="48.322" x="1053.13" y="138.993" fill="#294172" ry="14.425" overflow="visible"/>
  <rect width="48.322" height="48.322" x="1053.13" y="194.071" fill="#294172" ry="14.425" overflow="visible"/>
  <rect width="48.322" height="48.322" x="998.052" y="138.993" fill="#294172" ry="14.425" overflow="visible"/>
  <rect width="48.322" height="48.322" x="998.052" y="194.071" fill="#294172" ry="14.425" overflow="visible"/>
  <rect width="48.322" height="48.322" x="943.993" y="138.993" fill="#294172" ry="14.425" overflow="visible"/>
  <rect width="48.322" height="48.322" x="943.993" y="194.071" fill="#294172" ry="14.425" overflow="visible"/>
  <rect width="48.322" height="48.322" x="886.875" y="248.13" fill="#294172" ry="14.425" overflow="visible"/>
  <rect width="48.322" height="48.322" x="886.875" y="303.208" fill="#294172" ry="14.425" overflow="visible"/>
  <rect width="48.322" height="48.322" x="832.816" y="248.13" fill="#294172" ry="14.425" overflow="visible"/>
  <rect width="48.322" height="48.322" x="832.816" y="303.208" fill="#294172" ry="14.425" overflow="visible"/>
  <rect width="48.322" height="48.322" x="777.738" y="248.13" fill="#294172" ry="14.425" overflow="visible"/>
  <path fill="#3c6eb4" d="M825.603 327.986c0-13.054-10.582-23.636-23.635-23.636-13.048 0-23.626 10.574-23.635 23.62v18.29c.007 2.962 2.41 5.36 5.373 5.36h18.272c13.05-.006 23.626-10.584 23.626-23.634z" opacity=".358"/>
  <rect width="48.322" height="48.322" x="723.679" y="248.13" fill="#294172" ry="14.425" overflow="visible"/>
  <rect width="48.322" height="48.322" x="723.679" y="303.208" fill="#294172" ry="14.425" overflow="visible"/>
  <rect width="48.322" height="48.322" x="886.875" y="356.247" fill="#3c6eb4" ry="14.425" opacity=".325" overflow="visible"/>
  <rect width="48.322" height="48.322" x="886.875" y="411.325" fill="#294172" ry="14.425" overflow="visible"/>
  <rect width="48.322" height="48.322" x="832.816" y="356.247" fill="#294172" ry="14.425" overflow="visible"/>
  <rect width="48.322" height="48.322" x="832.816" y="411.325" fill="#294172" ry="14.425" overflow="visible"/>
  <rect width="48.322" height="48.322" x="777.738" y="356.247" fill="#294172" ry="14.425" overflow="visible"/>
  <rect width="48.322" height="48.322" x="777.738" y="411.325" fill="#294172" ry="14.425" overflow="visible"/>
  <rect width="48.322" height="48.322" x="723.679" y="356.247" fill="#294172" ry="14.425" overflow="visible"/>
  <rect width="48.322" height="48.322" x="723.679" y="411.325" fill="#3c6eb4" ry="14.425" opacity=".191" overflow="visible"/>
  <rect width="48.322" height="48.322" x="886.875" y="30.876" fill="#3c6eb4" ry="14.425" opacity=".358" overflow="visible"/>
  <path fill="#294172" d="M935.23 110.175c0-13.054-10.582-23.636-23.636-23.636-13.047 0-23.625 10.57-23.634 23.61v18.29c.007 2.96 2.41 5.36 5.373 5.36h18.27c13.05-.01 23.627-10.59 23.627-23.64z"/>
  <rect width="48.322" height="48.322" x="832.816" y="30.876" fill="#294172" ry="14.425" overflow="visible"/>
  <rect width="48.322" height="48.322" x="832.816" y="85.954" fill="#294172" ry="14.425" overflow="visible"/>
  <rect width="48.322" height="48.322" x="777.738" y="30.876" fill="#294172" ry="14.425" overflow="visible"/>
  <rect width="48.322" height="48.322" x="777.738" y="85.954" fill="#294172" ry="14.425" overflow="visible"/>
  <rect width="48.322" height="48.322" x="723.679" y="30.876" fill="#294172" ry="14.425" overflow="visible"/>
  <rect width="48.322" height="48.322" x="723.679" y="85.954" fill="#3c6eb4" ry="14.425" opacity=".191" overflow="visible"/>
  <rect width="48.322" height="48.322" x="886.875" y="138.993" fill="#294172" ry="14.425" overflow="visible"/>
  <rect width="48.322" height="48.322" x="886.875" y="194.071" fill="#3c6eb4" ry="14.425" opacity=".358" overflow="visible"/>
  <rect width="48.322" height="48.322" x="832.816" y="138.993" fill="#294172" ry="14.425" overflow="visible"/>
  <rect width="48.322" height="48.322" x="832.816" y="194.071" fill="#294172" ry="14.425" overflow="visible"/>
  <rect width="48.322" height="48.322" x="777.738" y="138.993" fill="#294172" ry="14.425" overflow="visible"/>
  <rect width="48.322" height="48.322" x="777.738" y="194.071" fill="#294172" ry="14.425" overflow="visible"/>
  <rect width="48.322" height="48.322" x="723.679" y="138.993" fill="#294172" ry="14.425" overflow="visible"/>
  <path fill="#294172" d="M771.51 219.08c0-13.053-10.58-23.635-23.635-23.635-13.047 0-23.625 10.573-23.634 23.62v-.002 18.29c.01 2.963 2.41 5.36 5.38 5.36h18.27c13.05-.004 23.63-10.583 23.63-23.632z"/>
  <rect width="48.322" height="48.322" x="1269.364" y="248.13" fill="#294172" ry="14.425" overflow="visible"/>
  <rect width="48.322" height="48.322" x="1269.364" y="303.208" fill="#294172" ry="14.425" overflow="visible"/>
  <rect width="48.322" height="48.322" x="1215.305" y="248.13" fill="#3c6eb4" ry="14.425" opacity=".358" overflow="visible"/>
  <path fill="#294172" d="M1263.39 327.265c0-13.054-10.583-23.636-23.637-23.636-13.047 0-23.625 10.57-23.634 23.61h-.01v18.29c.01 2.96 2.41 5.36 5.37 5.36h18.27c13.05-.01 23.62-10.59 23.62-23.64z"/>
  <rect width="48.322" height="48.322" x="1160.227" y="248.13" fill="#294172" ry="14.425" overflow="visible"/>
  <rect width="48.322" height="48.322" x="1160.227" y="303.208" fill="#294172" ry="14.425" overflow="visible"/>
  <rect width="48.322" height="48.322" x="1269.364" y="356.247" fill="#294172" ry="14.425" overflow="visible"/>
  <rect width="48.322" height="48.322" x="1269.364" y="411.325" fill="#294172" ry="14.425" overflow="visible"/>
  <rect width="48.322" height="48.322" x="1215.305" y="356.247" fill="#3c6eb4" ry="14.425" opacity=".358" overflow="visible"/>
  <rect width="48.322" height="48.322" x="1215.305" y="411.325" fill="#294172" ry="14.425" overflow="visible"/>
  <rect width="48.322" height="48.322" x="1160.227" y="356.247" fill="#294172" ry="14.425" overflow="visible"/>
  <rect width="48.322" height="48.322" x="1160.227" y="411.325" fill="#294172" ry="14.425" overflow="visible"/>
  <rect width="48.322" height="48.322" x="1269.364" y="30.876" fill="#294172" ry="14.425" overflow="visible"/>
  <path fill="#294172" d="M1317.044 109.843c0-13.053-10.582-23.636-23.635-23.636-13.05 0-23.63 10.574-23.64 23.62v18.29c0 2.962 2.41 5.36 5.37 5.36h18.27c13.05-.005 23.62-10.584 23.62-23.634z"/>
  <rect width="48.322" height="48.322" x="1215.305" y="30.876" fill="#294172" ry="14.425" overflow="visible"/>
  <rect width="48.322" height="48.322" x="1215.305" y="85.954" fill="#294172" ry="14.425" overflow="visible"/>
  <rect width="48.322" height="48.322" x="1160.227" y="30.876" fill="#294172" ry="14.425" overflow="visible"/>
  <rect width="48.322" height="48.322" x="1160.227" y="85.954" fill="#3c6eb4" ry="14.425" opacity=".358" overflow="visible"/>
  <rect width="48.322" height="48.322" x="1269.364" y="138.993" fill="#3c6eb4" ry="14.425" opacity=".325" overflow="visible"/>
  <path fill="#294172" d="M1317.48 219.08c0-13.053-10.58-23.635-23.635-23.635-13.047 0-23.625 10.573-23.634 23.62v-.002 18.29c.01 2.963 2.41 5.36 5.38 5.36h18.27c13.05-.004 23.63-10.583 23.63-23.632z"/>
  <rect width="48.322" height="48.322" x="1215.305" y="138.993" fill="#294172" ry="14.425" overflow="visible"/>
  <rect width="48.322" height="48.322" x="1215.305" y="194.071" fill="#294172" ry="14.425" overflow="visible"/>
  <rect width="48.322" height="48.322" x="1160.227" y="138.993" fill="#294172" ry="14.425" overflow="visible"/>
  <rect width="48.322" height="48.322" x="1160.227" y="194.071" fill="#294172" ry="14.425" overflow="visible"/>
  <rect width="48.322" height="48.322" x="1376.461" y="248.13" fill="#294172" ry="14.425" overflow="visible"/>
  <rect width="48.322" height="48.322" x="1376.461" y="303.208" fill="#3c6eb4" ry="14.425" opacity=".191" overflow="visible"/>
  <rect width="48.322" height="48.322" x="1321.383" y="248.13" fill="#294172" ry="14.425" overflow="visible"/>
  <rect width="48.322" height="48.322" x="1321.383" y="303.208" fill="#294172" ry="14.425" overflow="visible"/>
  <rect width="48.322" height="48.322" x="1376.461" y="356.247" fill="#294172" ry="14.425" overflow="visible"/>
  <rect width="48.322" height="48.322" x="1376.461" y="411.325" fill="#3c6eb4" ry="14.425" opacity=".089" overflow="visible"/>
  <rect width="48.322" height="48.322" x="1321.383" y="356.247" fill="#294172" ry="14.425" overflow="visible"/>
  <rect width="48.322" height="48.322" x="1321.383" y="411.325" fill="#294172" ry="14.425" overflow="visible"/>
  <rect width="48.322" height="48.322" x="1376.461" y="30.876" fill="#294172" ry="14.425" overflow="visible"/>
  <rect width="48.322" height="48.322" x="1376.461" y="85.954" fill="#294172" ry="14.425" overflow="visible"/>
  <rect width="48.322" height="48.322" x="1321.383" y="30.876" fill="#3c6eb4" ry="14.425" opacity=".191" overflow="visible"/>
  <rect width="48.322" height="48.322" x="1321.383" y="85.954" fill="#294172" ry="14.425" overflow="visible"/>
  <rect width="48.322" height="48.322" x="1376.461" y="138.993" fill="#294172" ry="14.425" overflow="visible"/>
  <rect width="48.322" height="48.322" x="1376.461" y="194.071" fill="#294172" ry="14.425" overflow="visible"/>
  <rect width="48.322" height="48.322" x="1321.383" y="138.993" fill="#294172" ry="14.425" overflow="visible"/>
  <rect width="48.322" height="48.322" x="1321.383" y="194.071" fill="#294172" ry="14.425" overflow="visible"/>
  <rect width="48.322" height="48.322" x="398.395" y="248.13" fill="#294172" ry="14.425" overflow="visible"/>
  <rect width="48.322" height="48.322" x="398.395" y="303.208" fill="#294172" ry="14.425" overflow="visible"/>
  <rect width="48.322" height="48.322" x="344.337" y="248.13" fill="#294172" ry="14.425" overflow="visible"/>
  <rect width="48.322" height="48.322" x="344.337" y="303.208" fill="#294172" ry="14.425" overflow="visible"/>
  <rect width="48.322" height="48.322" x="289.258" y="248.13" fill="#294172" ry="14.425" overflow="visible"/>
  <rect width="48.322" height="48.322" x="289.258" y="303.208" fill="#294172" ry="14.425" overflow="visible"/>
  <path fill="#294172" d="M282.692 272.45c0-13.052-10.582-23.634-23.636-23.634-13.047 0-23.625 10.573-23.634 23.62v-.002 18.29c.007 2.963 2.41 5.36 5.373 5.36h18.27c13.05-.004 23.627-10.583 23.627-23.633z"/>
  <rect width="48.322" height="48.322" x="235.2" y="303.208" fill="#294172" ry="14.425" overflow="visible"/>
  <rect width="48.322" height="48.322" x="398.395" y="356.247" fill="#294172" ry="14.425" overflow="visible"/>
  <rect width="48.322" height="48.322" x="398.395" y="411.325" fill="#294172" ry="14.425" overflow="visible"/>
  <path fill="#3c6eb4" d="M391.598 379.915c0-13.054-10.582-23.636-23.636-23.636-13.047 0-23.625 10.57-23.635 23.61v18.29c.007 2.96 2.41 5.36 5.374 5.36h18.28c13.05-.01 23.63-10.59 23.63-23.64z" opacity=".358"/>
  <rect width="48.322" height="48.322" x="344.337" y="411.325" fill="#294172" ry="14.425" overflow="visible"/>
  <rect width="48.322" height="48.322" x="289.258" y="356.247" fill="#294172" ry="14.425" overflow="visible"/>
  <rect width="48.322" height="48.322" x="289.258" y="411.325" fill="#294172" ry="14.425" overflow="visible"/>
  <rect width="48.322" height="48.322" x="235.2" y="356.247" fill="#294172" ry="14.425" overflow="visible"/>
  <rect width="48.322" height="48.322" x="235.2" y="411.325" fill="#294172" ry="14.425" overflow="visible"/>
  <rect width="48.322" height="48.322" x="398.395" y="30.876" fill="#294172" ry="14.425" overflow="visible"/>
  <path fill="#294172" d="M447.132 110.175c0-13.054-10.582-23.636-23.635-23.636-13.048 0-23.626 10.57-23.635 23.61v18.29c.007 2.96 2.41 5.36 5.373 5.36h18.272c13.05-.01 23.626-10.59 23.626-23.64z"/>
  <rect width="48.322" height="48.322" x="344.337" y="30.876" fill="#294172" ry="14.425" overflow="visible"/>
  <rect width="48.322" height="48.322" x="344.337" y="85.954" fill="#3c6eb4" ry="14.425" opacity=".325" overflow="visible"/>
  <rect width="48.322" height="48.322" x="289.258" y="30.876" fill="#294172" ry="14.425" overflow="visible"/>
  <rect width="48.322" height="48.322" x="289.258" y="85.954" fill="#294172" ry="14.425" overflow="visible"/>
  <rect width="48.322" height="48.322" x="235.2" y="30.876" fill="#294172" ry="14.425" overflow="visible"/>
  <rect width="48.322" height="48.322" x="235.2" y="85.954" fill="#294172" ry="14.425" overflow="visible"/>
  <rect width="48.322" height="48.322" x="398.395" y="138.993" fill="#294172" ry="14.425" overflow="visible"/>
  <rect width="48.322" height="48.322" x="398.395" y="194.071" fill="#294172" ry="14.425" overflow="visible"/>
  <rect width="48.322" height="48.322" x="344.337" y="138.993" fill="#294172" ry="14.425" overflow="visible"/>
  <rect width="48.322" height="48.322" x="344.337" y="194.071" fill="#294172" ry="14.425" overflow="visible"/>
  <rect width="48.322" height="48.322" x="289.258" y="138.993" fill="#294172" ry="14.425" overflow="visible"/>
  <rect width="48.322" height="48.322" x="289.258" y="194.071" fill="#294172" ry="14.425" overflow="visible"/>
  <rect width="48.322" height="48.322" x="235.2" y="138.993" fill="#294172" ry="14.425" overflow="visible"/>
  <rect width="48.322" height="48.322" x="235.2" y="194.071" fill="#294172" ry="14.425" overflow="visible"/>
  <rect width="48.322" height="48.322" x="178.081" y="248.13" fill="#294172" ry="14.425" overflow="visible"/>
  <rect width="48.322" height="48.322" x="178.081" y="303.208" fill="#294172" ry="14.425" overflow="visible"/>
  <rect width="48.322" height="48.322" x="124.023" y="248.13" fill="#294172" ry="14.425" overflow="visible"/>
  <rect width="48.322" height="48.322" x="124.023" y="303.208" fill="#294172" ry="14.425" overflow="visible"/>
  <rect width="48.322" height="48.322" x="68.944" y="248.13" fill="#294172" ry="14.425" overflow="visible"/>
  <path fill="#3c6eb4" d="M116.81 327.986c0-13.054-10.582-23.636-23.636-23.636-13.048 0-23.625 10.574-23.635 23.62h-.01v18.29c.01 2.962 2.41 5.36 5.37 5.36h18.27c13.05-.006 23.62-10.584 23.62-23.634z" opacity=".358"/>
  <rect width="48.322" height="48.322" x="14.886" y="248.13" fill="#294172" ry="14.425" overflow="visible"/>
  <rect width="48.322" height="48.322" x="14.886" y="303.208" fill="#294172" ry="14.425" overflow="visible"/>
  <rect width="48.322" height="48.322" x="178.081" y="356.247" fill="#3c6eb4" ry="14.425" opacity=".325" overflow="visible"/>
  <rect width="48.322" height="48.322" x="178.081" y="411.325" fill="#294172" ry="14.425" overflow="visible"/>
  <rect width="48.322" height="48.322" x="124.023" y="356.247" fill="#294172" ry="14.425" overflow="visible"/>
  <rect width="48.322" height="48.322" x="124.023" y="411.325" fill="#294172" ry="14.425" overflow="visible"/>
  <rect width="48.322" height="48.322" x="68.944" y="356.247" fill="#294172" ry="14.425" overflow="visible"/>
  <rect width="48.322" height="48.322" x="68.944" y="411.325" fill="#294172" ry="14.425" overflow="visible"/>
  <rect width="48.322" height="48.322" x="14.886" y="356.247" fill="#294172" ry="14.425" overflow="visible"/>
  <rect width="48.322" height="48.322" x="14.886" y="411.325" fill="#3c6eb4" ry="14.425" opacity=".191" overflow="visible"/>
  <rect width="48.322" height="48.322" x="178.081" y="30.876" fill="#3c6eb4" ry="14.425" opacity=".358" overflow="visible"/>
  <path fill="#294172" d="M226.436 110.175c0-13.054-10.582-23.636-23.635-23.636-13.04 0-23.62 10.57-23.63 23.61v18.29c.01 2.96 2.41 5.36 5.38 5.36h18.27c13.05-.01 23.63-10.59 23.63-23.64z"/>
  <rect width="48.322" height="48.322" x="124.023" y="30.876" fill="#294172" ry="14.425" overflow="visible"/>
  <rect width="48.322" height="48.322" x="124.023" y="85.954" fill="#294172" ry="14.425" overflow="visible"/>
  <rect width="48.322" height="48.322" x="68.944" y="30.876" fill="#294172" ry="14.425" overflow="visible"/>
  <rect width="48.322" height="48.322" x="68.944" y="85.954" fill="#294172" ry="14.425" overflow="visible"/>
  <rect width="48.322" height="48.322" x="14.886" y="30.876" fill="#294172" ry="14.425" overflow="visible"/>
  <rect width="48.322" height="48.322" x="14.886" y="85.954" fill="#3c6eb4" ry="14.425" opacity=".191" overflow="visible"/>
  <rect width="48.322" height="48.322" x="178.081" y="138.993" fill="#294172" ry="14.425" overflow="visible"/>
  <rect width="48.322" height="48.322" x="178.081" y="194.071" fill="#3c6eb4" ry="14.425" opacity=".358" overflow="visible"/>
  <rect width="48.322" height="48.322" x="124.023" y="138.993" fill="#294172" ry="14.425" overflow="visible"/>
  <rect width="48.322" height="48.322" x="124.023" y="194.071" fill="#294172" ry="14.425" overflow="visible"/>
  <rect width="48.322" height="48.322" x="68.944" y="138.993" fill="#294172" ry="14.425" overflow="visible"/>
  <rect width="48.322" height="48.322" x="68.944" y="194.071" fill="#294172" ry="14.425" overflow="visible"/>
  <rect width="48.322" height="48.322" x="14.886" y="138.993" fill="#294172" ry="14.425" overflow="visible"/>
  <path fill="#294172" d="M62.717 219.08c0-13.053-10.582-23.635-23.635-23.635-13.048 0-23.625 10.573-23.635 23.62v-.002 18.29c.007 2.963 2.41 5.36 5.373 5.36h18.27c13.05-.004 23.627-10.583 23.627-23.632z"/>
  <rect width="48.322" height="48.322" x="560.57" y="248.13" fill="#294172" ry="14.425" overflow="visible"/>
  <rect width="48.322" height="48.322" x="560.57" y="303.208" fill="#294172" ry="14.425" overflow="visible"/>
  <rect width="48.322" height="48.322" x="506.512" y="248.13" fill="#3c6eb4" ry="14.425" opacity=".358" overflow="visible"/>
  <path fill="#294172" d="M554.595 327.265c0-13.054-10.582-23.636-23.635-23.636-13.048 0-23.626 10.57-23.635 23.61v18.29c.007 2.96 2.41 5.36 5.373 5.36h18.27c13.05-.01 23.626-10.59 23.626-23.64z"/>
  <rect width="48.322" height="48.322" x="451.434" y="248.13" fill="#294172" ry="14.425" overflow="visible"/>
  <rect width="48.322" height="48.322" x="451.434" y="303.208" fill="#294172" ry="14.425" overflow="visible"/>
  <rect width="48.322" height="48.322" x="560.57" y="356.247" fill="#294172" ry="14.425" overflow="visible"/>
  <rect width="48.322" height="48.322" x="560.57" y="411.325" fill="#294172" ry="14.425" overflow="visible"/>
  <rect width="48.322" height="48.322" x="506.512" y="356.247" fill="#3c6eb4" ry="14.425" opacity=".358" overflow="visible"/>
  <rect width="48.322" height="48.322" x="506.512" y="411.325" fill="#294172" ry="14.425" overflow="visible"/>
  <rect width="48.322" height="48.322" x="451.434" y="356.247" fill="#294172" ry="14.425" overflow="visible"/>
  <rect width="48.322" height="48.322" x="451.434" y="411.325" fill="#294172" ry="14.425" overflow="visible"/>
  <rect width="48.322" height="48.322" x="560.57" y="30.876" fill="#294172" ry="14.425" overflow="visible"/>
  <path fill="#294172" d="M608.25 109.843c0-13.053-10.58-23.636-23.635-23.636-13.047 0-23.625 10.574-23.634 23.62v18.29c.01 2.962 2.41 5.36 5.38 5.36h18.27c13.05-.005 23.63-10.584 23.63-23.634z"/>
  <rect width="48.322" height="48.322" x="506.512" y="30.876" fill="#294172" ry="14.425" overflow="visible"/>
  <rect width="48.322" height="48.322" x="506.512" y="85.954" fill="#294172" ry="14.425" overflow="visible"/>
  <rect width="48.322" height="48.322" x="451.434" y="30.876" fill="#294172" ry="14.425" overflow="visible"/>
  <rect width="48.322" height="48.322" x="451.434" y="85.954" fill="#3c6eb4" ry="14.425" opacity=".358" overflow="visible"/>
  <rect width="48.322" height="48.322" x="560.57" y="138.993" fill="#3c6eb4" ry="14.425" opacity=".325" overflow="visible"/>
  <path fill="#294172" d="M608.687 219.08c0-13.053-10.582-23.635-23.635-23.635-13.048 0-23.625 10.573-23.635 23.62v-.002 18.29c.007 2.963 2.41 5.36 5.373 5.36h18.27c13.05-.004 23.628-10.583 23.628-23.632z"/>
  <rect width="48.322" height="48.322" x="506.512" y="138.993" fill="#294172" ry="14.425" overflow="visible"/>
  <rect width="48.322" height="48.322" x="506.512" y="194.071" fill="#294172" ry="14.425" overflow="visible"/>
  <rect width="48.322" height="48.322" x="451.434" y="138.993" fill="#294172" ry="14.425" overflow="visible"/>
  <rect width="48.322" height="48.322" x="451.434" y="194.071" fill="#294172" ry="14.425" overflow="visible"/>
  <rect width="48.322" height="48.322" x="667.667" y="248.13" fill="#294172" ry="14.425" overflow="visible"/>
  <rect width="48.322" height="48.322" x="667.667" y="303.208" fill="#3c6eb4" ry="14.425" opacity=".191" overflow="visible"/>
  <rect width="48.322" height="48.322" x="612.589" y="248.13" fill="#294172" ry="14.425" overflow="visible"/>
  <rect width="48.322" height="48.322" x="612.589" y="303.208" fill="#294172" ry="14.425" overflow="visible"/>
  <rect width="48.322" height="48.322" x="667.667" y="356.247" fill="#294172" ry="14.425" overflow="visible"/>
  <rect width="48.322" height="48.322" x="667.667" y="411.325" fill="#3c6eb4" ry="14.425" opacity=".089" overflow="visible"/>
  <rect width="48.322" height="48.322" x="612.589" y="356.247" fill="#294172" ry="14.425" overflow="visible"/>
  <rect width="48.322" height="48.322" x="612.589" y="411.325" fill="#294172" ry="14.425" overflow="visible"/>
  <rect width="48.322" height="48.322" x="667.667" y="30.876" fill="#294172" ry="14.425" overflow="visible"/>
  <rect width="48.322" height="48.322" x="667.667" y="85.954" fill="#294172" ry="14.425" overflow="visible"/>
  <rect width="48.322" height="48.322" x="612.589" y="30.876" fill="#3c6eb4" ry="14.425" opacity=".191" overflow="visible"/>
  <rect width="48.322" height="48.322" x="612.589" y="85.954" fill="#294172" ry="14.425" overflow="visible"/>
  <rect width="48.322" height="48.322" x="667.667" y="138.993" fill="#294172" ry="14.425" overflow="visible"/>
  <rect width="48.322" height="48.322" x="667.667" y="194.071" fill="#294172" ry="14.425" overflow="visible"/>
  <rect width="48.322" height="48.322" x="612.589" y="138.993" fill="#294172" ry="14.425" overflow="visible"/>
  <rect width="48.322" height="48.322" x="612.589" y="194.071" fill="#294172" ry="14.425" overflow="visible"/>
  <path fill="#3969b8" stroke="#000" stroke-width="2.348" d="M123.957 4.58c-7.816.118-14.24 6.352-14.524 14.25l-.403 11.398v.014c-.036 1.005.372 1.92 1.05 2.56.615.71 1.525 1.16 2.538 1.16h11.42c8.16-.002 14.772-6.62 14.772-14.78-.268-3.8-1.096-7.35-4.03-10.14-3.42-3.223-6.208-4.484-10.823-4.463zm68.616.028c-1.003 0-1.9.45-2.51 1.152-.67.634-1.077 1.538-1.042 2.532.01.005 0 .01 0 .015l.41 11.28c.28 7.816 6.64 13.986 14.38 14.104 4.57.02 7.32-1.22 10.71-4.41 2.9-2.76 3.73-6.28 3.99-10.04 0-8.07-6.54-14.62-14.62-14.62h-11.3v.01h-.01zM82.618 4.74c-4.616-.02-7.395 1.24-10.818 4.462-2.933 2.79-3.76 6.35-4.028 10.15 0 8.16 6.614 14.77 14.772 14.772h11.418c1.014 0 1.924-.45 2.54-1.16.676-.64 1.084-1.555 1.05-2.56v-.015l-.405-11.4c-.282-7.9-6.715-14.13-14.53-14.25zm81.202.103c-8.074.003-14.618 6.55-14.618 14.626.265 3.76 1.08 7.27 3.985 10.03 3.386 3.19 6.14 4.44 10.707 4.42 7.734-.12 14.104-6.29 14.384-14.1l.396-11.28v-.02c.035-1-.372-1.9-1.042-2.54-.61-.7-1.507-1.15-2.51-1.15H163.82z" opacity=".5" stroke-linecap="round" stroke-linejoin="round" overflow="visible" filter="url(#h)" transform="matrix(4.26 0 0 4.26 2018.41 279.13)"/>
  <path fill="url(#i)" stroke="#fff" stroke-width="2.348" d="M81.68 3.802c7.816.12 14.247 6.35 14.53 14.25l.404 11.398v.016c.035 1.005-.374 1.92-1.05 2.56-.617.71-1.525 1.16-2.538 1.16l-.015-.002v.002h-11.4c-8.15-.004-14.77-6.618-14.77-14.777.27-3.8 1.1-7.36 4.03-10.15 3.42-3.22 6.21-4.49 10.82-4.47z" stroke-linecap="round" stroke-linejoin="round" overflow="visible" transform="matrix(4.26 0 0 4.26 2018.41 279.13)"/>
  <path fill="url(#j)" stroke="#fff" stroke-width="2.348" d="M202.863 32.75c-7.734-.117-14.1-6.283-14.378-14.1l-.4-11.28v-.017c-.035-.995.37-1.9 1.04-2.535.61-.7 1.508-1.146 2.51-1.146l.015.002.002-.002h11.288c8.074.003 14.62 6.55 14.62 14.624-.267 3.76-1.085 7.276-3.988 10.04-3.387 3.187-6.14 4.435-10.71 4.415z" stroke-linecap="round" stroke-linejoin="round" overflow="visible" transform="matrix(4.26 0 0 4.26 2018.41 279.13)"/>
  <path fill="url(#k)" stroke="#fff" stroke-width="2.348" d="M162.957 32.98c7.734-.117 14.1-6.284 14.38-14.1l.4-11.28v-.003c0-.005-.002-.01 0-.014.034-.995-.37-1.9-1.04-2.535-.61-.7-1.51-1.146-2.513-1.146l-.014.002-.002-.002H162.88c-8.074.003-14.618 6.55-14.618 14.624.265 3.76 1.083 7.276 3.986 10.038 3.387 3.188 6.14 4.437 10.71 4.417z" stroke-linecap="round" stroke-linejoin="round" overflow="visible" transform="matrix(4.26 0 0 4.26 2018.41 279.13)"/>
  <path fill="url(#l)" stroke="#fff" stroke-width="2.348" d="M123.02 3.64c-7.815.12-14.246 6.35-14.53 14.248l-.403 11.4v.015c-.036 1.005.374 1.92 1.05 2.56.617.71 1.525 1.16 2.538 1.16l.015-.002v.01h11.407c8.16 0 14.772-6.62 14.772-14.77-.27-3.8-1.1-7.35-4.03-10.14-3.43-3.22-6.21-4.48-10.82-4.46z" stroke-linecap="round" stroke-linejoin="round" overflow="visible" transform="matrix(4.26 0 0 4.26 2018.41 279.13)"/>
  <path fill="none" stroke="url(#m)" stroke-width=".683" d="M81.682 4.257c7.574.115 13.806 6.154 14.08 13.808l.39 11.046v.01c.002.01 0 .01 0 .02.036.98-.36 1.86-1.017 2.48-.597.69-1.477 1.12-2.46 1.12H81.608c-7.906 0-14.315-6.41-14.315-14.32.26-3.68 1.06-7.12 3.904-9.82 3.316-3.12 6.013-4.35 10.486-4.33z" opacity=".74" stroke-linecap="round" stroke-linejoin="round" overflow="visible" filter="url(#n)" transform="matrix(4.26 0 0 4.26 2018.41 279.13)"/>
  <path fill="none" stroke="url(#o)" stroke-width=".683" d="M202.862 32.303c-7.496-.114-13.664-6.09-13.936-13.667l-.387-10.933V7.69c-.04-.964.35-1.843 1-2.457.59-.68 1.46-1.11 2.43-1.11l.01.002v-.002h10.94c7.82.003 14.16 6.347 14.16 14.174-.26 3.644-1.05 7.052-3.86 9.73-3.28 3.088-5.95 4.3-10.38 4.28z" opacity=".74" stroke-linecap="round" stroke-linejoin="round" overflow="visible" filter="url(#p)" transform="matrix(4.26 0 0 4.26 2018.41 279.13)"/>
  <path fill="none" stroke="url(#q)" stroke-width=".683" d="M162.958 32.53c7.495-.114 13.662-6.09 13.933-13.664l.39-10.93V7.92c.04-.964-.36-1.842-1-2.456-.59-.68-1.46-1.11-2.43-1.11h-10.96c-7.82.002-14.16 6.345-14.16 14.17.26 3.643 1.05 7.05 3.86 9.726 3.28 3.09 5.95 4.3 10.38 4.28z" opacity=".74" stroke-linecap="round" stroke-linejoin="round" overflow="visible" filter="url(#r)" transform="matrix(4.26 0 0 4.26 2018.41 279.13)"/>
  <path fill="none" stroke="url(#s)" stroke-width=".683" d="M123.02 4.097c-7.573.116-13.804 6.153-14.078 13.805l-.392 11.044v.016c-.034.973.363 1.86 1.018 2.48.597.688 1.477 1.123 2.46 1.123h11.066c7.905-.003 14.312-6.41 14.312-14.316-.26-3.69-1.06-7.13-3.903-9.83-3.315-3.12-6.01-4.35-10.483-4.33z" opacity=".74" stroke-linecap="round" stroke-linejoin="round" overflow="visible" filter="url(#t)" transform="matrix(4.26 0 0 4.26 2018.41 279.13)"/>
  <path stroke="#000" stroke-width=".822" d="M202.798 8.727c-.522.06-.95.558-1.108 1.226h-.124c-.997 0-1.86.4-2.275.983-1.97-.465-2.76.28-2.66 1.13.24 1.965 2.66 2.895 2.62 3.53-.96.15-.93.515-.5.653.32.1.87.04 1.21.28.4 1.08 1.08 1.8 1.85 1.8h.46v1.92c-1.05.08-1.82.34-1.82.65 0 .38 1.16.69 2.59.69s2.58-.31 2.58-.69c0-.31-.76-.57-1.81-.66v-1.92h.3c.76 0 1.43-.7 1.83-1.76.34-.29.93-.22 1.27-.33.43-.14.46-.51-.51-.66-.04-.64 2.39-1.57 2.63-3.53.11-.88-.73-1.64-2.82-1.1-.4-.61-1.27-1.02-2.29-1.02h-.06c-.16-.72-.65-1.23-1.22-1.23-.03 0-.07-.01-.1 0zm-40.87.162c-.513-.01-.998.52-1.107 1.24l-.08.56c-.06.39 0 .76.15 1.04-.06 0-.12-.01-.17-.01-.6 0-1.18.12-1.7.35.04-.35-.08-.77-.35-1.13l-.34-.45c-.46-.63-1.19-.86-1.64-.53-.44.33-.43 1.1.03 1.73l.34.44c.24.32.55.54.85.63-.44.39-.8.87-1.06 1.41-.19-.13-.43-.22-.69-.27l-.55-.09c-.77-.13-1.46.2-1.55.75-.09.55.45 1.1 1.22 1.22l.56.09c.22.03.43.03.62 0V16c0 .59.12 1.15.33 1.66-.24.045-.49.15-.72.315l-.45.33c-.63.454-.88 1.18-.56 1.635.33.453 1.1.455 1.73 0l.45-.33c.22-.156.39-.345.51-.543.42.412.94.74 1.5.953-.1.17-.2.37-.25.59l-.11.544c-.17.76.13 1.475.67 1.6.55.125 1.12-.39 1.29-1.15l.14-.545c.06-.27.06-.54.01-.77.65-.03 1.27-.22 1.82-.51-.08.35.01.78.26 1.18l.3.47c.42.65 1.13.95 1.6.65.47-.3.52-1.07.1-1.73l-.3-.48c-.27-.44-.68-.71-1.05-.76.47-.44.83-.98 1.07-1.59.18.1.38.17.6.21l.55.09c.77.13 1.47-.2 1.57-.75.03-.15 0-.31-.06-.45l.19.21c.13.13.26.24.4.32-.19.25-.32.56-.37.89-.21-.08-.46-.1-.72-.06l-.44.08c-.61.1-1.04.54-.97.98.08.44.63.71 1.24.6l.44-.07c.27-.05.51-.16.68-.3.08.16.19.3.31.43-.11.1-.2.22-.28.36l-.22.395c-.3.54-.24 1.14.15 1.36.39.212.95-.04 1.26-.58l.22-.39c.1-.19.17-.38.19-.57.04.003.074.01.115.01.17 0 .334-.027.493-.068.047.21.157.432.33.63l.3.34c.41.46 1.01.59 1.34.3.33-.3.27-.91-.14-1.37l-.3-.34c-.13-.14-.27-.25-.42-.33.12-.17.22-.36.28-.57.157.062.337.1.53.1l.45.013c.62.02 1.13-.32 1.143-.77.016-.44-.48-.81-1.1-.83l-.45-.01c-.24-.01-.47.04-.66.13-.08-.18-.184-.34-.31-.49.15-.12.29-.28.39-.48l.2-.39c.28-.552.195-1.16-.2-1.37-.1-.05-.21-.07-.324-.06-.33.02-.69.28-.9.695l-.2.4c-.095.188-.15.376-.16.55-.09-.01-.19-.02-.28-.02-.15 0-.29.02-.43.05-.04-.22-.153-.45-.334-.65l-.3-.332c-.41-.47-1.01-.61-1.34-.31-.27.24-.27.694-.04 1.11-.22-.2-.52-.347-.862-.407l-.55-.1c-.24-.04-.476-.03-.685.01l-.01-.13c-.05-.59-.21-1.14-.47-1.63.31-.01.64-.114.95-.33l.46-.323c.635-.45.886-1.18.564-1.64-.325-.45-1.1-.46-1.73-.01l-.456.32c-.32.23-.544.53-.644.83-.41-.38-.897-.69-1.43-.89.25-.22.44-.58.503-1l.083-.55c.12-.77-.24-1.46-.79-1.55h-.1zm-34.755.71h-.102c-.73.06-1.02.36-.91.83.63 2.66.41 3.76-2.04 4.09v.07c-.07-.02-.15-.03-.22-.03h-.22c.83-.37 1.4-1.2 1.4-2.16v-.2c-.1-1.23-1.12-2.17-2.36-2.17-1.3 0-2.36 1.06-2.36 2.37 0 .96.57 1.78 1.4 2.15h-.22c-.4 0-.75.2-.97.51-3.73.33-3.7 3.72-3.7 3.72 0 .49.36.88.8.88.44 0 .82-.36.91-.84.19-1.03.93-1.67 1.79-1.97v2.95c0 .65.52 1.18 1.18 1.18h2.37c.47 0 .88-.28 1.07-.68v.43c0 .3.24.54.54.54h1.09c.3 0 .54-.24.54-.54v-1.7c1.54-.26 1.51-2.11 1.27-2.56-.09-.19-.1-.4-.31-.4-.01 0-.03-.01-.04 0-.33.03-.47.16-.42.38.29 1.21.19 1.71-.93 1.86v.04c-.03-.01-.07-.02-.1-.02h-.1c.37-.17.638-.55.638-.99l-.01-.09c-.044-.56-.51-.99-1.07-.99-.42 0-.782.25-.96.6v-.81c3.375-.57 3.32-4.62 2.797-5.62-.21-.41-.22-.87-.69-.89zm-49.08 1.35c-.453 0-.88.07-1.27.18-.314-.01-.63.1-.896.32L71.663 15c-.546.456-.666 1.244-.234 1.76.43.52 1.22.545 1.77.09l2.8-2.33c.06.04.14.073.21.11l-2.41 2.017c-.55.454-.69 1.22-.27 1.72.41.497 1.19.49 1.73.036l2.6-2.165c.02.013.06.023.08.04l-1.68 1.4c-.55.45-.69 1.22-.28 1.714.41.498 1.2.496 1.74.044l1.1-.926-.38.917c-.27.656-.04 1.406.56 1.654.6.25 1.28-.12 1.55-.77l.8-1.94.8 1.94c.27.66.96 1.03 1.56.78.6-.24.82-.99.55-1.65l-.38-.91 1.1.93c.54.45 1.32.46 1.73-.04.41-.5.28-1.27-.27-1.72l-1.68-1.4c.02-.01.05-.02.08-.04l2.6 2.16c.54.46 1.32.46 1.74-.03.41-.5.27-1.26-.27-1.71l-2.41-2.02c.07-.03.14-.07.21-.11l2.8 2.34c.55.45 1.34.43 1.77-.09.43-.52.31-1.3-.23-1.76l-4.26-3.55c-.26-.22-.59-.33-.9-.32-.39-.11-.82-.18-1.27-.18-.79 0-1.51.2-2.07.52-.54.32-.93.78-1.02 1.33-.06.02-.12.04-.19.07-.06-.03-.13-.05-.2-.07-.08-.55-.46-1-1.01-1.32-.55-.33-1.28-.53-2.08-.53zm120.163.4c.254 0 .534.03.807.06-.023.1-.037.2-.037.3 0 .47.257.89.676 1.21-.076.41-.118.85-.118 1.31 0 .11.003.21.007.32-1.76-1.06-2.11-1.88-2.2-2.56-.07-.51.34-.65.88-.66zm9.415 0c.54 0 .94.15.87.65-.1.69-.44 1.51-2.24 2.58.01-.12.01-.23.01-.35 0-.5-.04-.98-.13-1.42.34-.31.55-.69.55-1.11 0-.1-.01-.19-.03-.28.33-.05.68-.09.99-.09zm-46.96 2.95c.91 0 1.65.68 1.72 1.58l.01.14c0 .95-.77 1.72-1.72 1.72s-1.72-.77-1.72-1.73.77-1.73 1.73-1.73zm8.84 3.3c.42 0 .75.31.79.72l.01.06c0 .44-.35.79-.79.79-.43 0-.79-.36-.79-.8 0-.44.36-.79.8-.79zm-44.48.28c.11.22.3.4.52.5h-.1c-.17 0-.32.09-.42.21v-.72z" opacity=".5" stroke-linecap="round" stroke-linejoin="round" overflow="visible" filter="url(#u)" transform="matrix(4.26 0 0 4.26 2018.41 279.13)"/>
  <path fill="#fff" d="M2350.122 324.517c-1.924 0-3.75.274-5.407.758-1.333-.027-2.696.438-3.825 1.38l-18.143 15.107c-2.33 1.94-2.83 5.287-.994 7.49 1.835 2.204 5.224 2.316 7.554.374l11.935-9.937c.285.17.603.31.91.47l-10.29 8.58c-2.313 1.92-2.922 5.18-1.155 7.3 1.766 2.12 5.082 2.09 7.394.17l11.06-9.21c.12.06.24.1.36.16l-7.15 5.96c-2.31 1.92-2.92 5.19-1.15 7.31 1.77 2.12 5.09 2.09 7.4.17l4.69-3.91-1.6 3.89c-1.14 2.78-.17 5.96 2.39 7.02 2.55 1.05 5.48-.52 6.63-3.3l3.41-8.26 3.41 8.26c1.15 2.78 4.07 4.34 6.63 3.29 2.56-1.05 3.53-4.24 2.39-7.02l-1.6-3.89 4.69 3.91c2.32 1.92 5.63 1.95 7.4-.17s1.16-5.39-1.15-7.31l-7.15-5.96c.12-.06.24-.11.35-.16l11.06 9.21c2.31 1.92 5.63 1.94 7.4-.18 1.77-2.12 1.16-5.38-1.15-7.31l-10.29-8.58c.31-.16.63-.3.91-.47l11.94 9.93c2.33 1.94 5.72 1.83 7.56-.38 1.83-2.21 1.33-5.55-1-7.49l-18.14-15.11c-1.13-.94-2.495-1.41-3.83-1.38-1.66-.49-3.483-.76-5.41-.76-3.38 0-6.47.81-8.835 2.2-2.322 1.36-3.966 3.31-4.33 5.63-.28.09-.55.2-.82.31-.27-.11-.54-.22-.82-.31-.36-2.32-2.005-4.28-4.33-5.64-2.363-1.39-5.453-2.2-8.833-2.2zm208.976-5.753c-.132-.005-.267-.003-.416.01-3.107.276-4.37 1.554-3.895 3.578 2.652 11.318 1.768 16.015-8.666 17.43 0 .094-.02.206-.03.317-.32-.07-.65-.1-.98-.1h-.94c3.51-1.58 5.96-5.11 5.96-9.2l-.03-.86c-.44-5.25-4.78-9.23-10.04-9.23-5.56 0-10.07 4.51-10.07 10.07 0 4.09 2.45 7.62 5.97 9.2h-.94c-1.71 0-3.22.85-4.12 2.15h-.01c-15.91 1.41-15.74 15.84-15.74 15.84 0 2.08 1.5 3.75 3.36 3.75 1.86 0 3.51-1.54 3.9-3.58.82-4.36 3.94-7.1 7.6-8.37v12.58c0 2.78 2.24 5.02 5.03 5.02h10.11c2.02 0 3.74-1.18 4.54-2.88v1.83c0 1.27 1.02 2.29 2.29 2.29h4.61c1.27 0 2.29-1.02 2.29-2.29v-7.24c6.54-1.1 6.43-8.96 5.42-10.91-.41-.79-.44-1.69-1.33-1.72-.06-.01-.11 0-.18.01-1.42.12-1.99.7-1.77 1.63 1.21 5.15.8 7.28-3.95 7.93 0 .04 0 .09-.01.14-.14-.03-.29-.04-.45-.04h-.43c1.6-.72 2.72-2.33 2.72-4.19l-.02-.39c-.2-2.39-2.18-4.2-4.57-4.2-1.8 0-3.35 1.03-4.105 2.54v-3.45c14.366-2.42 14.137-19.68 11.91-23.95-.9-1.73-.98-3.7-2.942-3.77zm-8.972 35.24c.472.953 1.26 1.72 2.232 2.157h-.427c-.73 0-1.38.35-1.8.89v-3.04zm156.957-38.316c-2.19-.02-4.232 2.25-4.697 5.326l-.36 2.364c-.25 1.664.02 3.235.644 4.428-.247-.01-.5-.015-.748-.015-2.577 0-5.03.54-7.256 1.5.163-1.48-.34-3.24-1.496-4.8l-1.436-1.91c-1.98-2.66-5.108-3.67-7.016-2.26-1.907 1.42-1.846 4.72.135 7.38l1.42 1.92c1.02 1.37 2.347 2.31 3.65 2.7-1.9 1.66-3.458 3.7-4.547 6-.827-.53-1.84-.93-2.962-1.12l-2.348-.4c-3.274-.54-6.22.9-6.613 3.25-.392 2.35 1.918 4.67 5.19 5.22l2.365.39c.924.16 1.81.15 2.633.02 0 .15-.01.3-.01.45 0 2.51.51 4.9 1.42 7.08-1.02.19-2.09.64-3.08 1.35l-1.93 1.39c-2.69 1.94-3.75 5.06-2.36 6.99 1.39 1.93 4.68 1.93 7.38-.01l1.93-1.39c.93-.66 1.65-1.47 2.16-2.32 1.8 1.76 3.96 3.15 6.36 4.06-.45.72-.82 1.57-1.03 2.5l-.52 2.32c-.74 3.24.53 6.28 2.85 6.81 2.32.53 4.78-1.65 5.52-4.89l.54-2.32c.26-1.15.26-2.28.06-3.27 2.79-.14 5.42-.92 7.75-2.18-.32 1.49.04 3.34 1.1 5.027l1.27 2.01c1.78 2.81 4.83 4.04 6.84 2.77s2.2-4.54.42-7.34l-1.28-2.02c-1.17-1.85-2.89-3.01-4.5-3.23 1.98-1.87 3.55-4.173 4.54-6.76.75.423 1.62.745 2.58.91l2.35.4c3.27.57 6.23-.84 6.64-3.184.41-2.343-1.89-4.7-5.16-5.27l-2.36-.403c-1.02-.18-2-.16-2.89.012l-.03-.55c-.21-2.5-.91-4.83-2-6.926 1.29-.03 2.73-.5 4.03-1.42l1.94-1.38c2.71-1.92 3.78-5.03 2.41-6.97-1.37-1.94-4.67-1.95-7.37-.03l-1.95 1.37c-1.37.98-2.33 2.25-2.75 3.53-1.75-1.632-3.82-2.92-6.104-3.77 1.08-.942 1.9-2.48 2.17-4.29l.36-2.35c.496-3.28-1-6.21-3.35-6.564-.15-.02-.29-.04-.435-.04zm-5.16 23.053c3.838 0 6.99 2.9 7.314 6.72l.03.63c0 4.06-3.287 7.35-7.345 7.35s-7.36-3.28-7.36-7.34 3.302-7.34 7.36-7.34z" overflow="visible"/>
  <path fill="#fff" d="M2746.128 340.88c-1.424.083-2.953 1.196-3.86 2.963l-.867 1.69c-.4.782-.62 1.587-.68 2.35-.39-.055-.78-.09-1.18-.09-.62 0-1.23.078-1.82.21-.18-.946-.66-1.93-1.43-2.8l-1.27-1.42c-1.76-1.977-4.31-2.562-5.73-1.302-1.41 1.27-1.15 3.88.62 5.85l1.27 1.43c.52.58 1.1 1.05 1.71 1.38-.83 1.1-1.39 2.4-1.6 3.82-.89-.34-1.97-.45-3.11-.25l-1.88.32c-2.61.45-4.45 2.3-4.13 4.17.32 1.87 2.68 3.02 5.28 2.58l1.89-.31c1.14-.19 2.13-.66 2.86-1.28.37.68.83 1.29 1.36 1.84-.47.43-.89.96-1.24 1.59l-.94 1.66c-1.3 2.31-1.01 4.9.64 5.83 1.65.93 4.03-.17 5.33-2.48l.93-1.66c.45-.79.71-1.61.79-2.39.17.01.33.02.51.02.72 0 1.43-.1 2.11-.27.2.91.66 1.86 1.4 2.69l1.27 1.42c1.76 1.98 4.32 2.55 5.73 1.29 1.42-1.26 1.15-3.87-.61-5.85l-1.27-1.42c-.54-.61-1.16-1.08-1.8-1.41.52-.73.92-1.54 1.18-2.41.67.28 1.44.42 2.26.45l1.9.06c2.65.07 4.82-1.4 4.88-3.29.06-1.9-2.03-3.47-4.68-3.55l-1.9-.06c-1.04-.03-2.01.19-2.81.57-.34-.77-.8-1.47-1.33-2.1.63-.51 1.2-1.19 1.63-2.02l.87-1.69c1.21-2.36.82-4.96-.87-5.82-.42-.22-.89-.3-1.36-.27zm-6.597 11.924c1.76 0 3.21 1.33 3.36 3.08l.02.286c0 1.858-1.51 3.365-3.36 3.365s-3.36-1.507-3.36-3.365c0-1.86 1.51-3.366 3.37-3.366zm142.04-37.814c-2.42 0-4.46 2.194-5.17 5.228h-.54c-4.24 0-7.9 1.7-9.66 4.19-8.41-1.98-11.79 1.203-11.35 4.826 1.01 8.366 11.34 12.3 11.16 15.004-4.11.64-3.98 2.19-2.14 2.78 1.36.435 3.7.227 5.17 1.244 1.7 4.63 4.57 7.66 7.84 7.66h1.94v8.202c-4.49.367-7.74 1.475-7.74 2.793 0 1.62 4.9 2.918 10.98 2.918 6.09 0 11-1.298 11-2.918 0-1.318-3.25-2.426-7.74-2.793v-8.2h1.3c3.23 0 6.07-2.956 7.78-7.482 1.45-1.232 3.99-.964 5.42-1.424 1.84-.59 1.96-2.14-2.16-2.78-.17-2.705 10.17-6.638 11.18-15.004.45-3.717-3.13-6.97-12.03-4.66-1.72-2.58-5.45-4.356-9.79-4.356h-.22c-.71-3.034-2.76-5.227-5.19-5.227zm-19.8 11.243c1.08-.01 2.28.12 3.45.277-.1.416-.15.85-.15 1.286 0 1.995 1.1 3.793 2.88 5.144-.32 1.758-.51 3.637-.51 5.6 0 .462.02.918.04 1.37-7.51-4.517-8.99-7.97-9.4-10.897-.3-2.15 1.44-2.76 3.71-2.78zm40.11 0c2.28.02 4 .63 3.7 2.78-.42 2.95-1.9 6.427-9.57 10.994.03-.484.04-.972.04-1.466 0-2.12-.2-4.16-.58-6.04 1.45-1.29 2.33-2.92 2.33-4.7 0-.4-.04-.8-.12-1.19 1.4-.2 2.89-.38 4.22-.37z" overflow="visible"/>
  <text x="277.341" y="124.089" fill="#fff" style="text-align:start;line-height:125%;-inkscape-font-specification:MgOpen Modata Bold" font-size="2.818" font-weight="bold" opacity=".4" font-family="MgOpen Modata" transform="matrix(4.26 0 0 4.26 2018.41 279.13)">
    <tspan x="277.341" y="124.089" style="text-align:start;line-height:125%;-inkscape-font-specification:MgOpen Modata Bold">tatica@fedoraproject.org</tspan>
  </text>
  <text x="203.479" y="26.286" fill="#fff" style="text-align:center;line-height:125%;-inkscape-font-specification:MgOpen Modata Bold" font-size="3.523" font-weight="bold" text-anchor="middle" font-family="MgOpen Modata" transform="matrix(4.26 0 0 4.26 2018.41 279.13)">
    <tspan x="203.479" y="26.286">INOVAO</tspan>
  </text>
  <text x="163.131" y="26.286" fill="#fff" style="text-align:center;line-height:125%;-inkscape-font-specification:MgOpen Modata Bold" font-size="3.523" font-weight="bold" text-anchor="middle" font-family="MgOpen Modata" transform="matrix(4.26 0 0 4.26 2018.41 279.13)">
    <tspan x="163.131" y="26.286">RECURSOS</tspan>
  </text>
  <text x="82.495" y="26.068" fill="#fff" style="text-align:center;line-height:125%;-inkscape-font-specification:MgOpen Modata Bold" font-size="3.523" font-weight="bold" text-anchor="middle" font-family="MgOpen Modata" transform="matrix(4.26 0 0 4.26 2018.41 279.13)">
    <tspan x="82.495" y="26.068">LIBERDADE</tspan>
  </text>
  <text x="122.952" y="26.15" fill="#fff" style="text-align:center;line-height:125%;-inkscape-font-specification:MgOpen Modata Bold" font-size="3.523" font-weight="bold" text-anchor="middle" font-family="MgOpen Modata" transform="matrix(4.26 0 0 4.26 2018.41 279.13)">
    <tspan x="122.952" y="26.15">AMIZADE</tspan>
  </text>
</svg>
